<?xml version="1.0" encoding="utf-8" ?><svg xmlns="http://www.w3.org/2000/svg" xmlns:xlink="http://www.w3.org/1999/xlink" width="1024" height="1024" viewBox="0 0 1024 1024"><path fill="#ECD7A4" transform="scale(2 2)" d="M74.8662 161.421C71.0071 159.419 71.3504 157.18 71.3508 153.233L71.3795 115.159C71.3743 93.8572 68.941 86.4961 93.9059 86.5171L295.358 86.5362C304.401 86.5341 324.451 83.6551 325.743 97.2706C326.36 102.284 326.162 108.026 326.161 113.144L326.154 253.755L334.716 253.755C334.594 249.825 333.615 244.278 339.307 244.268C354.33 244.241 369.372 244.215 384.397 244.293C391.5 244.338 394.401 246.531 394.739 253.755C404.673 255.427 420.507 249.782 427.981 259.607C431.954 264.831 430.93 273.7 430.925 280.114L430.912 381.081C435.511 380.919 440.504 379.653 440.472 385.753L440.494 403.627C440.531 428.055 432.056 425.525 411.297 425.489L298.464 425.451C282.28 425.358 285.018 406.488 285.054 395.847L103.312 395.854C93.4675 395.858 72.7023 399.338 71.6089 385.215C71.3757 382.203 71.3833 379.146 71.3786 376.129L71.3343 200.401C71.3481 197.298 72.5281 195.017 75.7196 194.235C76.9927 193.001 76.0002 189.364 74.8662 188.314C70.1509 186.797 67.9455 167.813 77.5574 168.194L78.0348 168.047C78.2767 167.285 77.7969 166.11 77.5574 165.28C76.6969 163.925 75.8091 162.718 74.8662 161.421Z"/><path fill="#283618" transform="scale(2 2)" d="M74.8662 161.421C71.0071 159.419 71.3504 157.18 71.3508 153.233L71.3795 115.159C71.3743 93.8572 68.941 86.4961 93.9059 86.5171L295.358 86.5362C304.401 86.5341 324.451 83.6551 325.743 97.2706C326.36 102.284 326.162 108.026 326.161 113.144L326.154 253.755L334.716 253.755C334.594 249.825 333.615 244.278 339.307 244.268C354.33 244.241 369.372 244.215 384.397 244.293C391.5 244.338 394.401 246.531 394.739 253.755C404.673 255.427 420.507 249.782 427.981 259.607C431.954 264.831 430.93 273.7 430.925 280.114L430.912 381.081C435.511 380.919 440.504 379.653 440.472 385.753L440.494 403.627C440.531 428.055 432.056 425.525 411.297 425.489L298.464 425.451C282.28 425.358 285.018 406.488 285.054 395.847L103.312 395.854C93.4675 395.858 72.7023 399.338 71.6089 385.215C71.3757 382.203 71.3833 379.146 71.3786 376.129L71.3343 200.401C71.3481 197.298 72.5281 195.017 75.7196 194.235C84.0509 195.853 81.0301 209.084 81.0222 216.758L81.0124 349.661L294.091 349.661L294.077 273.217C294.064 251.708 298.068 253.674 316.536 253.755L316.551 104.239C316.53 93.7616 311.62 96.4303 302.308 96.4217L101.431 96.4142C95.8745 96.4147 90.3028 96.3873 84.7448 96.4696C78.6067 96.5604 80.9943 111.189 80.9961 116.251L81.0183 146.13C81.028 150.891 82.5144 157.462 78.961 161.182L78.7284 161.421C77.0896 161.657 76.4703 161.557 74.8662 161.421Z"/><path fill="#ECD7A4" transform="scale(2 2)" d="M303.731 263.589L334.716 263.589C334.849 274.848 335.268 273.216 346.467 273.187L377.962 273.188C387.567 273.206 393.682 274.737 394.739 263.589L395.005 263.584C402.084 263.503 409.502 263.458 416.572 263.799C423.243 264.12 421.308 274.857 421.3 279.294L421.28 371.484L421.28 381.081L303.731 381.081L303.731 263.589Z"/><path fill="#283618" transform="scale(2 2)" d="M326.624 334.923C335.314 333.553 343.484 339.445 344.927 348.123C346.37 356.801 340.546 365.02 331.88 366.535C323.112 368.068 314.774 362.161 313.314 353.379C311.854 344.598 317.831 336.31 326.624 334.923Z"/><path fill="#DF4914" transform="scale(2 2)" d="M328.384 344.115C330.741 343.813 333.078 344.804 334.501 346.707C335.924 348.61 336.213 351.132 335.257 353.307C334.301 355.483 332.248 356.976 329.884 357.215C326.295 357.578 323.08 354.989 322.67 351.405C322.259 347.821 324.806 344.572 328.384 344.115Z"/><path fill="#283618" transform="scale(2 2)" d="M327.937 285.54C336.54 284.798 344.117 291.17 344.861 299.773C345.605 308.375 339.236 315.953 330.633 316.7C322.028 317.447 314.446 311.075 313.702 302.469C312.957 293.862 319.331 286.283 327.937 285.54Z"/><path fill="#DF4914" transform="scale(2 2)" d="M327.895 294.832C330.125 294.344 332.444 295.098 333.961 296.804C335.478 298.509 335.955 300.901 335.21 303.058C334.466 305.215 332.614 306.802 330.368 307.209C328.507 307.546 326.592 307.03 325.152 305.804C323.712 304.577 322.897 302.769 322.933 300.878C322.989 297.957 325.042 295.456 327.895 294.832Z"/><path fill="#283618" transform="scale(2 2)" d="M357.701 336.238C361.139 336.116 406.973 335.827 408.513 336.591C412.769 338.704 412.83 343.454 408.255 345.733C406.805 345.886 403.715 345.756 402.14 345.749L359.48 345.742C352.99 345.741 352.374 338.624 357.701 336.238Z"/><path fill="#283618" transform="scale(2 2)" d="M357.701 286.928C360.473 286.779 364.482 286.917 367.347 286.917L399.302 286.922C401.745 286.924 405.32 286.732 407.646 287.208C413 288.305 412.351 293.963 408.255 296.486C406.691 296.666 403.556 296.514 401.874 296.502L368.761 296.492C365.289 296.491 361.383 296.604 357.936 296.241C352.848 295.474 353.639 289.192 357.701 286.928Z"/><path fill="#283618" transform="scale(2 2)" d="M358.924 354.971C364.859 354.938 407.25 354.49 409.214 355.453C413.846 357.725 411.566 363.225 407.498 364.427C392.265 365.211 374.568 364.592 359.272 364.357C353.683 364.271 351.606 356.597 358.924 354.971Z"/><path fill="#283618" transform="scale(2 2)" d="M367.979 305.088L381.887 305.048C384.363 305.041 390.43 304.589 392.452 306.243C394.221 307.691 394.181 311.218 392.434 312.849C389.683 315.419 383.966 314.565 380.31 314.525L366.982 314.549C363.812 314.552 349.345 315.532 355.344 306.69C356.784 304.567 365.024 305.084 367.979 305.088Z"/><path fill="#A37420" transform="scale(2 2)" d="M81.0124 359.405L270.508 359.403C278.281 359.402 286.354 359.265 294.091 359.405C294.178 366.587 294.104 373.889 294.091 381.081C292.138 380.985 289.796 381.064 287.812 381.081C284.607 380.376 285.023 384.37 285.054 386.31L108.603 386.311C105.442 386.313 83.3531 386.628 81.7989 385.823C81.2307 384.511 80.3586 362.332 81.0124 359.405Z"/><path fill="#283618" transform="scale(2 2)" d="M188.627 368.987L204.151 368.953C206.92 368.95 210.097 368.85 212.821 369.048C218.826 369.485 220.315 377.813 213.006 378.705L196.229 378.733C191.899 378.74 179.576 380.43 184.249 370.6C184.789 369.464 187.407 369.115 188.627 368.987Z"/><path fill="#606C38" transform="scale(2 2)" d="M294.091 390.334C308.869 390.675 324.866 390.338 339.788 390.337L430.912 390.334L430.944 403.768C430.983 407.109 432.04 412.07 429.719 414.748C426.637 416.754 416.406 416.102 412.442 416.1L330.335 416.091C325.979 416.091 298.035 416.566 295.922 415.309C293.139 411.685 293.913 395.548 294.091 390.334Z"/><path fill="#283618" transform="scale(2 2)" d="M347.86 398.195C352.641 398.185 374.938 397.401 377.823 399.032C381.574 401.153 379.951 406.51 376.267 407.536C372.46 407.539 347.715 408.058 346.013 407.156C344.338 406.268 344.042 404.641 343.634 402.959C344.265 400.069 344.976 399.009 347.86 398.195Z"/><path fill="#BC6C25" transform="scale(2 2)" d="M343.634 253.755C356.207 253.185 372.483 253.28 385.339 253.755C385.334 255.942 385.566 261.83 385.339 263.589L343.634 263.589L343.634 253.755Z"/><path fill="#283618" transform="scale(2 2)" d="M74.8662 188.314C70.1509 186.797 67.9455 167.813 77.5574 168.194C81.9976 170.618 84.9077 187.76 74.8662 188.314Z"/><path fill="#FEFAE0" transform="scale(2 2)" d="M74.8662 161.421C76.4703 161.557 77.0896 161.657 78.7284 161.421C78.5987 162.62 78.4703 162.682 77.883 163.761L77.5258 164.416L77.5574 165.28C76.6969 163.925 75.8091 162.718 74.8662 161.421Z"/><path fill="#283618" transform="scale(2 2)" d="M161.467 270.286C171.56 271.189 165.331 279.149 161.467 283.477L161.489 309.858C161.486 331.534 164.232 328.981 142.116 328.984L114.063 328.974C110.974 328.531 110.48 328.238 108.696 325.658C108.537 309.751 108.706 293.373 108.792 277.435C108.824 271.358 126.324 273.16 130.116 273.159L157.577 273.172C158.828 271.944 159.793 270.78 161.467 270.286Z"/><path fill="#DE7910" transform="scale(2 2)" d="M147.512 283.477L147.914 283.432C147.638 284.577 135.103 297.304 133.51 298.826C124.134 288.904 121.205 299.24 123.507 302.118C137.653 319.801 137.888 305.471 151.431 294.982L151.701 294.777C151.612 297.025 151.687 299.602 151.701 301.875L151.701 319.096L118.219 319.096L118.219 283.477L147.512 283.477Z"/><path fill="#283618" transform="scale(2 2)" d="M162.712 188.75C173.378 190.503 164.478 198.905 161.467 203.004L161.476 229.14C161.494 248.837 162.244 245.748 143.553 245.748L114.063 245.732C110.07 245.635 108.728 243.814 108.723 240.007C108.703 225.156 108.548 210.244 108.823 195.402C108.936 189.268 123.694 191.319 128.065 191.32L157.577 191.333C159.329 190.293 160.766 189.383 162.712 188.75Z"/><path fill="#DE7910" transform="scale(2 2)" d="M125.606 201.372L148.635 201.372C144.315 206.766 138.997 211.422 134.47 216.693C129.944 210.129 122.408 209.262 122.753 215.684C122.955 219.433 126.936 222.27 129.227 224.942C135.76 232.448 138.079 227.602 143.334 221.756C145.979 218.819 148.306 215.737 151.701 213.801C151.823 221.091 151.704 228.724 151.701 236.042L118.219 236.042L118.219 201.372L125.606 201.372Z"/><path fill="#283618" transform="scale(2 2)" d="M161.023 106.527C171.938 106.01 165.117 115.6 161.467 119.53C161.631 132.902 161.401 146.681 161.432 160.071C161.446 166.126 147.485 164.035 142.984 164.036L114.063 164.024C113.254 164.178 112.11 164.065 111.26 164.024C107.311 159.639 108.685 154.669 108.686 148.956L108.694 128.571C108.698 111.195 104.842 111.261 121.614 111.32L146.545 111.325C148.556 111.319 154.341 110.961 155.85 111.327C157.563 108.915 158.419 107.857 161.023 106.527Z"/><path fill="#606C38" transform="scale(2 2)" d="M118.219 120.774L147.512 120.774C142.705 126.183 139.012 130.941 134.47 136.303C131.734 133.107 131.154 130.902 127.044 129.578C115.854 132.699 125.386 141.073 129.471 145.549C133.721 150.205 135.524 150.125 139.661 145.948C142.765 141.754 148.056 135.895 151.701 132.081L151.701 154.472L118.219 154.472L118.219 120.774Z"/><path fill="#283618" transform="scale(2 2)" d="M180.985 111.327L268.223 111.322C272.53 111.322 276.76 111.279 281.115 111.476C289.357 111.266 290.134 120.612 281.491 121.469L190.963 121.483C187.066 121.486 183.304 121.55 179.279 121.412C173.613 121.218 171.87 112.104 180.985 111.327Z"/><path fill="#283618" transform="scale(2 2)" d="M178.497 196.747C180.178 196.594 183.105 196.725 184.874 196.735L267.43 196.742C272.653 196.743 278.104 196.607 283.325 196.964C288.382 197.309 288.312 204.096 284.217 206.764C282.807 206.992 275.896 206.774 273.891 206.77L203.251 206.768C195.632 206.767 187.991 206.88 180.381 206.613C173.981 206.389 173.676 199.96 178.497 196.747Z"/><path fill="#283618" transform="scale(2 2)" d="M178.497 282.229C182.647 282.048 188.431 282.225 192.696 282.225L220.985 282.228C241.692 282.229 263.606 281.86 284.217 282.229C288.586 284.958 288.396 289.167 284.217 292.005C282.374 292.262 277.242 292.015 274.972 292.012L183.615 291.968C173.106 291.934 172.551 284.842 178.497 282.229Z"/><path fill="#283618" transform="scale(2 2)" d="M179.979 130.559C189.488 130.441 225.93 129.094 234.091 130.767C238.494 131.67 239.074 138.29 234.189 140.701C217.128 141.558 197.919 140.771 180.716 140.686C173.838 140.653 172.605 132.305 179.979 130.559Z"/><path fill="#283618" transform="scale(2 2)" d="M178.497 214.992C180.283 214.822 184.033 214.98 185.959 214.981L223.009 214.986C225.427 214.987 232.375 214.645 234.191 215.276C239.587 217.149 238.371 222.451 234.189 224.97C232.463 225.206 229.599 225.001 227.766 224.995L192.633 224.977C188.018 224.977 183.173 225.175 178.617 224.602C174.882 224.133 172.729 218.137 178.497 214.992Z"/><path fill="#283618" transform="scale(2 2)" d="M179.979 300.386L214.359 300.372C220.299 300.371 226.068 300.356 232.155 300.447C238.989 300.55 239.257 308.889 233.057 310.237L197.727 310.24C191.962 310.241 185.951 310.368 180.216 310.129C174.191 309.878 172.434 301.378 179.979 300.386Z"/><path fill="#283618" transform="scale(2 2)" d="M249.221 130.559C253.979 130.557 281.978 130.009 284.514 130.877C289.572 132.608 288.028 138.727 283.459 140.701C273.419 141.302 260.46 140.83 250.219 140.654C243.817 140.544 242.402 132.06 249.221 130.559Z"/><path fill="#283618" transform="scale(2 2)" d="M250.205 214.992L271.239 214.983C274.144 214.98 283.454 214.528 285.252 215.764C289.411 218.622 287.515 224.143 282.315 224.97C271.484 225.297 260.189 224.806 249.332 224.908C244.831 224.95 241.936 216.012 250.205 214.992Z"/><path fill="#283618" transform="scale(2 2)" d="M250.205 300.386C255.699 300.496 282.191 299.557 285.174 301.187C289.585 303.597 287.872 309.263 283.459 310.237C281.507 310.526 279.086 310.277 277.085 310.269C268.747 310.237 256.402 311.074 248.433 310.237C243.351 307.039 244.308 301.756 250.205 300.386Z"/><path fill="#283618" transform="scale(2 2)" d="M216.225 149.476L237.041 149.452C239.896 149.45 248.895 148.436 250.692 151.019C252.895 154.185 251.311 157.495 248.433 159.409C243.157 160.2 222.467 159.582 217.002 159.203C211.92 158.186 211.834 151.805 216.225 149.476Z"/><path fill="#283618" transform="scale(2 2)" d="M217.338 233.683C227.604 233.687 238.203 233.521 248.433 233.683C253.191 236.441 252.685 241.932 247.471 243.504C242.879 243.506 218.423 244.104 216.033 242.956C211.606 240.831 212.488 234.779 217.338 233.683Z"/><path fill="#283618" transform="scale(2 2)" d="M219.921 319.096L247.471 319.096C252.842 322.975 250.907 328.834 244.52 328.974L227.556 329.007C224.518 329.012 221.535 329.062 218.523 328.88C212.474 328.514 210.332 319.546 219.921 319.096Z"/><path fill="#283618" transform="scale(2 2)" d="M178.497 233.683C185.632 233.635 193.042 233.508 200.158 233.726C206.088 233.908 208.142 239.693 202.349 243.504C197.017 244.287 184.094 243.276 178.319 243.173C175.652 243.126 172.335 236.68 178.497 233.683Z"/><path fill="#283618" transform="scale(2 2)" d="M178.497 319.096C182.894 319.091 199.733 318.433 202.704 319.709C207.143 321.615 205.65 327.827 201.44 328.974C196.012 329.34 177.151 330.214 175.548 326.781C173.904 323.261 175.323 320.684 178.497 319.096Z"/><path fill="#283618" transform="scale(2 2)" d="M178.497 149.476C185.804 149.248 194.368 149.32 201.606 149.699C204.92 149.872 206.717 156.709 201.44 159.409C196.736 159.82 177.825 160.275 175.707 157.206C173.589 154.136 175.661 151.178 178.497 149.476Z"/><path fill="#283618" transform="scale(2 2)" d="M377.293 119.53C385.183 119.046 383.434 126.49 383.752 132.081C405.476 136.79 414.572 148.485 419.665 168.777C421.683 168.744 423.656 168.694 425.739 168.771C433.502 169.061 434.517 180.905 419.665 177.755C416.833 195.519 407.122 208.358 389.706 213.801C332.075 228.844 315.1 139.314 374.121 132.081C373.96 127.513 372.628 121.834 377.293 119.53Z"/><path fill="#DDA15E" transform="scale(2 2)" d="M375.944 141.858C393.54 140.614 408.823 153.847 410.109 171.44C411.395 189.033 398.198 204.348 380.608 205.676C362.959 207.008 347.581 193.757 346.291 176.105C345.001 158.452 358.288 143.106 375.944 141.858Z"/><path fill="#283618" transform="scale(2 2)" d="M378.686 149.476C381.348 148.798 382.389 149.843 383.752 151.937L383.752 168.194L399.038 168.194C409.065 175.924 395.405 197.343 378.686 197.822C345.494 197.277 347.592 149.061 378.686 149.476Z"/><path fill="#BC6C25" transform="scale(2 2)" d="M374.121 159.977C374.491 160.525 374.263 164.486 374.171 165.428C372.663 180.829 378.053 177.794 391.86 177.755C389.726 183.256 386.797 185.679 381.695 188.314C360.313 188.377 358.403 166.839 374.121 159.977Z"/></svg>