<?xml version="1.0" encoding="UTF-8" standalone="no"?>
<svg
   width="1024"
   height="1024"
   viewBox="0 0 1024 1024"
   version="1.1"
   id="svg41"
   sodipodi:docname="logo.svg"
   inkscape:version="1.4.3 (1:1.4.3+202512261034+0d15f75042)"
   inkscape:export-filename="logo.png"
   inkscape:export-xdpi="96"
   inkscape:export-ydpi="96"
   xmlns:inkscape="http://www.inkscape.org/namespaces/inkscape"
   xmlns:sodipodi="http://sodipodi.sourceforge.net/DTD/sodipodi-0.dtd"
   xmlns="http://www.w3.org/2000/svg"
   xmlns:svg="http://www.w3.org/2000/svg">
  <defs
     id="defs41" />
  <sodipodi:namedview
     id="namedview41"
     pagecolor="#ffffff"
     bordercolor="#666666"
     borderopacity="1.0"
     inkscape:showpageshadow="2"
     inkscape:pageopacity="0.0"
     inkscape:pagecheckerboard="0"
     inkscape:deskcolor="#d1d1d1"
     inkscape:zoom="0.81445312"
     inkscape:cx="524.89209"
     inkscape:cy="413.16067"
     inkscape:window-width="1850"
     inkscape:window-height="1016"
     inkscape:window-x="70"
     inkscape:window-y="27"
     inkscape:window-maximized="1"
     inkscape:current-layer="g41" />
  <g
     id="g41"
     transform="translate(-77.41372,79.813756)">
    <path
       fill="#283618"
       d="m 184.71462,2.2831359 c 44.56673,-0.7578531 91.60135,-0.00584 136.32004,-0.00438 l 384.62259,-0.00779 c 16.82035,-0.020456 34.47842,-0.6850388 51.12099,0.8116723 33.07814,2.9754012 25.36567,61.6710218 25.35593,83.7369168 l 0.002,662.987485 c 0.0414,33.81602 8.3432,49.35785 -23.62934,69.14435 0.0414,21.92952 -12.42956,36.51673 -33.19259,42.36866 -16.80574,3.85014 -28.11752,-2.80299 -40.94404,-12.7632 -19.09488,18.2815 -41.71601,17.09065 -60.76462,0 -32.85897,26.67097 -71.96194,12.45635 -74.8185,-29.60546 l -327.07983,0.017 c -54.05036,0.0122 -66.73637,4.73902 -66.71055,-54.97844 L 154.8274,35.164996 C 155.46495,17.882684 167.50317,4.5289331 184.71462,2.2831359 Z"
       id="path1"
       style="stroke-width:2.43526" />
    <path
       fill="#fefae0"
       d="m 191.16368,25.027251 515.78426,-0.01437 c 14.72602,-0.01826 43.57899,-4.761909 51.55933,6.62196 V 787.28812 c -10.65913,16.91775 -14.51415,-6.50458 -40.51542,-9.93343 -15.42738,0.40426 -21.88812,4.9728 -33.62121,14.37291 -18.29855,-18.00388 -42.73395,-18.96824 -60.76462,0 -18.96093,-24.44758 -49.63791,-16.62552 -68.24086,4.37373 l -361.47862,-0.0438 C 172.53808,795.51447 178.42118,788.54232 178.3939,765.9431 V 77.051719 c -0.01,-18.366734 -8.10187,-50.741817 12.76978,-52.024468 z"
       id="path2"
       style="stroke-width:2.43526;fill:#ffffff;fill-opacity:1" />
    <path
       fill="#283618"
       d="m 238.03611,299.36664 c 21.84429,-0.22404 43.70562,0.002 65.55477,-0.0122 12.26154,-0.01 45.51015,-5.0142 50.57306,8.13864 2.29888,5.97369 1.86297,93.71856 1.05203,105.68543 -0.46757,6.93075 -3.92077,11.47008 -10.68349,13.83472 -14.12207,0.88399 -31.73144,0.10958 -46.16036,0.0341 -12.13247,-0.0633 -72.39055,6.00292 -72.87517,-10.00405 -1.33452,-34.77796 -0.47974,-69.99913 -0.44808,-104.82822 0.01,-9.24425 5.12378,-11.32153 12.98724,-12.84844 z"
       id="path3"
       style="stroke-width:2.43526" />
    <path
       fill="#bc6c25"
       d="m 248.27881,323.10313 h 83.91908 v 81.58366 l -57.13852,-0.0219 c -6.69453,-0.0146 -21.1064,-0.64534 -26.78056,0.0219 z"
       id="path4"
       style="stroke-width:2.43526" />
    <path
       fill="#283618"
       d="m 305.5464,334.17139 c 42.82405,-1.62919 -21.34262,53.17391 -28.75312,57.70349 -39.91392,-6.18799 19.75727,-53.2908 28.75312,-57.70349 z"
       id="path5"
       style="stroke-width:2.43526" />
    <path
       fill="#283618"
       d="m 238.03611,491.87885 68.12641,-0.0268 c 60.09249,-0.0122 49.20931,-1.08125 49.1947,55.67493 l 0.10715,38.22141 c 0.0292,11.33127 3.54087,30.33361 -10.93189,32.42062 l -105.21786,0.0852 c -16.96159,-0.1169 -14.41674,-13.66912 -14.43622,-25.97936 l -0.0365,-68.37481 c 0.002,-13.48891 -4.00601,-30.31656 13.19424,-32.02124 z"
       id="path6"
       style="stroke-width:2.43526" />
    <path
       fill="#bc6c25"
       d="m 248.27881,515.5715 h 83.91908 l 0.0219,53.89231 c 0.0146,5.65711 0.56011,20.2492 -0.0219,24.82261 -27.49166,0.46027 -56.32757,0.0195 -83.91908,0 z"
       id="path7"
       style="stroke-width:2.43526" />
    <path
       fill="#283618"
       d="m 306.89553,526.58618 c 38.5794,-0.28979 -24.11882,54.03843 -32.64466,57.17992 -39.78242,0.1242 23.59767,-54.70813 32.64466,-57.17992 z"
       id="path8"
       style="stroke-width:2.43526" />
    <path
       fill="#283618"
       d="m 302.19061,107.37558 c 16.46967,0.0122 53.24697,-7.14992 53.19826,14.72846 -0.0755,33.03431 0.50897,66.3925 -0.31414,99.41707 -0.35312,14.2 -22.89632,10.79064 -31.58533,10.75654 l -44.67485,-0.0511 c -14.55799,-0.002 -54.63507,6.68723 -54.25517,-12.91905 0.53819,-29.67609 0.34337,-59.12326 0.20456,-88.83343 -0.1315,-27.83016 13.04569,-23.11306 34.82422,-23.12037 z"
       id="path9"
       style="stroke-width:2.43526" />
    <path
       fill="#bc6c25"
       d="m 248.27881,130.71268 h 83.91908 v 79.06804 h -83.91908 z"
       id="path10"
       style="stroke-width:2.43526" />
    <path
       fill="#283618"
       d="m 305.5464,140.74109 c 9.05917,0.50653 11.74039,3.63584 14.75281,11.63323 -3.7016,11.61376 -34.14479,39.94802 -43.50593,45.60269 -8.67683,1.40271 -17.6045,-5.84949 -14.44597,-15.03286 2.50832,-7.29117 32.88089,-36.25129 43.19909,-42.20306 z"
       id="path11"
       style="stroke-width:2.43526" />
    <path
       fill="#283618"
       d="m 411.27323,594.28642 259.83742,-0.0365 c 11.24603,-0.0244 22.10729,-0.0171 33.6967,0.12419 11.88894,0.14612 24.2625,23.25918 -8.47471,23.79493 l -257.83563,0.0244 c -11.56262,0.01 -22.34108,-0.0317 -34.56365,-0.29711 -12.48315,0.8353 -30.22646,-23.19829 7.33987,-23.60985 z"
       id="path12"
       style="stroke-width:2.43526" />
    <path
       fill="#283618"
       d="m 232.83196,683.0882 c 6.48997,-0.55037 21.21842,-0.0195 28.4755,-0.0146 l 161.25564,0.01 c 11.96687,0 23.68047,-0.0365 35.88113,0.14368 23.36388,0.34337 23.3371,16.35033 9.51943,23.41259 -3.73326,0.44322 -12.90445,0.0414 -17.10771,0.0244 l -150.95936,-0.0268 c -21.87107,0.002 -44.63101,0.44079 -66.37545,-0.30927 -6.98677,-0.24109 -15.22038,-16.56221 -0.68918,-23.23969 z"
       id="path13"
       style="stroke-width:2.43526" />
    <path
       fill="#283618"
       d="m 399.1432,404.68679 c 10.24514,-0.38721 22.86222,-0.0195 33.34602,-0.0195 l 144.39633,0.002 c 12.86548,0.002 37.4811,-0.9327 50.71674,1.44655 10.80525,5.61084 7.32282,19.83763 -3.99627,22.63818 -22.91336,0.0828 -222.96027,0.98141 -226.7544,-0.66239 -12.3419,-5.34784 -8.43331,-19.3652 2.29158,-23.40529 z"
       id="path14"
       style="stroke-width:2.43526" />
    <path
       fill="#283618"
       d="m 399.1432,208.13692 c 23.22264,-0.0487 223.51794,-1.10074 227.81618,0.64047 11.64054,4.71467 9.12735,18.58104 -3.35336,23.44912 l -151.5146,-0.002 c -23.10818,0.002 -52.02933,0.93757 -74.45321,0.002 -10.07467,-7.30091 -11.78179,-20.17126 1.50499,-24.08959 z"
       id="path15"
       style="stroke-width:2.43526" />
    <path
       fill="#283618"
       d="m 502.04026,306.00516 c 13.91508,-0.50897 30.61609,-0.002 44.76008,0 l 137.1003,-0.0292 c 5.15544,0 20.41722,-0.67213 24.43296,0.67457 10.63235,3.57253 9.57545,18.19626 -0.40425,23.18855 -9.53648,0.38964 -21.87594,0.0195 -31.62186,0.0195 l -164.90122,-0.0536 c -22.05128,-0.27518 -24.73981,-17.37558 -9.36601,-23.7998 z"
       id="path16"
       style="stroke-width:2.43526" />
    <path
       fill="#283618"
       d="m 502.04026,109.95696 181.18094,-0.056 c 7.48599,-0.017 15.44686,-0.40669 22.83787,0.59664 13.07735,1.77287 12.18361,17.52657 1.87028,23.20803 -6.20504,0.44565 -18.18409,0.0195 -24.8908,0.017 l -175.26325,-0.0438 c -20.93107,-1.43193 -17.89186,-19.034 -5.73504,-23.72187 z"
       id="path17"
       style="stroke-width:2.43526" />
    <path
       fill="#283618"
       d="m 502.04026,494.5966 c 8.66222,-0.33606 19.30187,-0.017 28.1443,-0.017 l 136.87382,0.007 c 12.11298,0.002 29.1111,-0.60151 41.34585,0.92297 9.55839,1.19327 11.69655,17.04438 -0.47488,22.82082 l -180.60378,0.0244 c -8.02662,0.0341 -17.49004,0.50167 -25.28531,-0.0244 -10.90997,-6.44126 -10.90266,-17.46569 0,-23.73405 z"
       id="path18"
       style="stroke-width:2.43526" />
    <path
       fill="#283618"
       d="m 397.63821,544.67286 94.29572,-0.0195 c 17.4048,0.002 38.13618,-0.79146 55.1002,0.99115 6.54598,0.68918 12.45392,17.28305 -1.94577,22.74046 -4.15456,0.35312 -12.13978,0.0877 -16.61822,0.0706 l -130.83193,-0.0706 c -10.67375,-6.4023 -11.44086,-18.12077 0,-23.71213 z"
       id="path19"
       style="stroke-width:2.43526" />
    <path
       fill="#283618"
       d="m 669.92955,355.33867 c 11.03173,0.01 34.17401,-2.73723 43.05297,3.40693 6.68722,4.62699 3.39718,19.54784 -6.39743,20.09333 -10.21349,0.56742 -20.85557,0.32389 -31.29797,0.31902 l -64.55145,-0.0438 c -9.36845,-0.0414 -37.58094,2.34759 -44.15614,-3.18045 -4.49306,-3.77953 -4.27632,-12.94098 -0.35798,-17.0103 6.55328,-6.80411 30.6721,-3.62853 39.57785,-3.6261 z"
       id="path20"
       style="stroke-width:2.43526" />
    <path
       fill="#283618"
       d="m 570.14232,158.78637 c 25.97448,-0.89131 57.73515,-0.0317 84.0798,-0.0341 l 32.73964,0.002 c 9.79462,0.002 32.14787,-3.06843 28.4341,14.29741 -0.98141,4.5856 -3.55792,7.06956 -7.46651,9.48534 -3.34605,0.38964 -11.34588,0.0584 -15.0012,0.0365 l -114.64963,0.10472 c -18.24497,-1.88977 -20.69241,-17.44134 -8.1362,-23.89234 z"
       id="path21"
       style="stroke-width:2.43526" />
    <path
       fill="#283618"
       d="m 397.63821,158.78637 c 41.75984,-0.5869 92.85161,-2.28671 134.35819,0.47244 12.74615,2.31106 9.69233,18.34725 -0.18508,23.27865 -3.56279,0.44078 -11.55531,0.0706 -15.43955,0.0414 l -84.16261,-0.0195 c -10.99763,0.0268 -23.76083,0.5869 -34.74629,-0.70379 -8.48688,-0.99602 -11.43842,-16.71563 0.17534,-23.06922 z"
       id="path22"
       style="stroke-width:2.43526" />
    <path
       fill="#283618"
       d="m 402.13126,355.33867 80.81899,-0.0195 c 14.34125,0 28.6825,-0.21674 43.0481,0.34581 16.32355,0.0487 17.59963,22.11947 2.06997,23.44912 -23.02295,0.81581 -51.68597,-0.005 -75.07177,0.0195 l -32.93203,0.017 c -6.34142,0 -12.41739,0.0925 -18.84161,-0.27032 -15.94365,-0.90348 -15.52235,-21.11858 0.90835,-23.54166 z"
       id="path23"
       style="stroke-width:2.43526" />
    <path
       fill="#283618"
       d="m 581.06689,544.67286 c 28.34644,-0.94001 100.85875,-3.16584 127.87796,0.79146 9.48047,1.3881 10.93189,17.11745 -1.0155,22.92067 -4.93627,0.41887 -16.22857,0.0317 -21.67869,0.0292 L 603.52,568.38499 c -9.96996,-0.0146 -33.85256,3.70404 -30.51382,-14.80638 0.73302,-4.06688 4.61726,-6.89179 8.06071,-8.90575 z"
       id="path24"
       style="stroke-width:2.43526" />
    <path
       fill="#283618"
       d="m 504.32453,683.0882 c 4.75363,-0.60638 66.10758,-0.53576 69.27342,0.14855 12.92393,2.79081 12.96533,16.73754 1.74608,23.40285 -9.46829,0.50166 -63.24371,0.96193 -69.79213,-0.71353 -12.83625,-3.28273 -10.90022,-17.34393 -1.22737,-22.83787 z"
       id="path25"
       style="stroke-width:2.43526" />
    <path
       fill="#283618"
       d="m 397.63821,494.5966 c 20.29789,-0.80607 42.4271,0.34581 62.86381,0.0852 13.86394,-0.17778 17.77984,14.82586 5.14084,23.64881 -20.11769,0.61856 -45.23497,0.1729 -65.64001,-0.64534 -11.12184,-0.44809 -14.6481,-15.34458 -2.36464,-23.08871 z"
       id="path26"
       style="stroke-width:2.43526" />
    <path
       fill="#283618"
       d="m 397.63821,306.00516 c 15.6368,-1.15431 33.81846,0.7525 49.66226,-0.0584 21.7688,-1.11779 30.32874,13.62041 13.58632,23.89234 -12.70962,1.54882 -49.36273,0.58203 -62.42303,-0.31659 -9.16388,-1.03255 -12.36625,-15.81701 -0.82555,-23.51731 z"
       id="path27"
       style="stroke-width:2.43526" />
    <path
       fill="#283618"
       d="m 399.1432,109.95696 c 18.20601,-0.0341 42.39545,-0.83043 60.69886,0.84503 9.33679,0.85478 13.07735,18.39596 1.04473,22.90363 -19.63063,0.65021 -43.33789,-0.007 -63.24858,0 -10.14043,-7.35205 -10.66888,-18.36187 1.50499,-23.74866 z"
       id="path28"
       style="stroke-width:2.43526" />
    <path
       fill="#f5e893"
       d="m 589.35409,799.83458 c 10.871,-0.87913 20.39287,7.23029 21.25982,18.10129 0.86695,10.87344 -7.24977,20.38557 -18.12321,21.24278 -10.85883,0.85478 -20.35634,-7.24734 -21.22086,-18.10616 -0.86695,-10.85639 7.22785,-20.36365 18.08425,-21.23791 z"
       id="path29"
       style="stroke-width:2.43526" />
    <path
       fill="#bc6c25"
       d="m 712.12287,801.13745 c 10.42048,-2.29646 20.72894,4.30554 23.00103,14.73332 2.27454,10.42535 -4.34694,20.7192 -14.77959,22.96938 -10.401,2.24531 -20.65588,-4.35181 -22.92311,-14.74794 -2.26723,-10.39613 4.31041,-20.66562 14.70167,-22.95476 z"
       id="path30"
       style="stroke-width:2.43526" />
    <path
       fill="#bc6c25"
       d="m 650.14062,801.04004 c 10.32307,-1.99448 20.31738,4.72684 22.35813,15.04016 2.04318,10.31577 -4.6343,20.3393 -14.93789,22.42875 -10.37177,2.10163 -20.47324,-4.62699 -22.53103,-15.00607 -2.05536,-10.38152 4.72197,-20.45376 15.11079,-22.46284 z"
       id="path31"
       style="stroke-width:2.43526" />
    <path
       fill="#283618"
       d="m 944.36635,509.45656 c 19.55027,-0.46757 10.35229,27.86912 11.4579,41.86213 0.29223,3.72838 0.29467,8.98367 -0.17534,12.67309 25.25365,-0.77684 68.51119,-7.86345 68.05339,28.37809 -0.4627,36.49969 1.5464,74.54576 -1.1056,110.92125 -1.8557,25.485 -41.66248,21.58858 -57.89105,21.57884 l -70.7565,-0.0414 c -38.50146,0.72327 -29.28157,-37.1572 -30.10468,-63.69911 -8.02662,-0.0925 -66.27562,6.12468 -48.73931,-18.15243 6.12225,-8.47471 37.70027,-5.46472 48.73931,-5.41115 l -0.01,-23.15202 c 0.0633,-60.21668 21.66408,-50.53165 70.02592,-50.42207 0.27031,-19.974 -7.37884,-46.48912 10.50571,-54.53522 z"
       id="path32"
       style="stroke-width:2.43526" />
    <path
       fill="#94983d"
       d="m 893.94915,587.34106 c 34.04738,-0.44322 72.19086,-0.53332 106.29185,0 0.01,16.04593 5.489,112.05851 -5.49398,114.316 l -69.85788,0.0195 c -7.74169,-0.002 -29.88552,0.49192 -36.06134,-0.97898 -3.54087,-4.36642 -2.17712,-91.746 -1.54395,-104.08059 0.3044,-5.9323 0.65995,-8.04367 6.6653,-9.27591 z"
       id="path33"
       style="stroke-width:2.43526" />
    <path
       fill="#283618"
       d="m 966.75614,614.70121 c 10.99033,-0.64291 19.3871,11.08531 11.09017,19.4553 -5.87141,6.09058 -11.87433,12.50019 -18.16217,18.18896 -20.55116,18.59565 -22.68932,36.28051 -46.27725,8.78398 -11.82806,-2.02126 -20.09821,-22.59921 -5.47934,-26.81709 7.97548,-2.30132 18.05989,8.68414 24.56447,12.95803 6.03458,-7.61019 26.2862,-28.50473 34.26412,-32.56918 z"
       id="path34"
       style="stroke-width:2.43526" />
    <path
       fill="#283618"
       d="m 939.76371,267.19198 c 24.55229,-2.445 15.95339,32.97343 15.8852,52.28992 30.85232,-0.11203 68.00709,-8.14595 68.14099,34.46137 l 0.041,67.60526 c -0.037,54.37693 2.1772,58.08827 -58.31715,58.05174 l -71.565,-0.0365 c -37.22782,-2.21852 -30.21184,-37.33985 -30.10468,-64.22756 -10.23784,-0.095 -40.63476,2.54972 -47.848,-3.46781 -8.39434,-7.00137 -2.02614,-18.23279 7.02816,-20.05437 7.95843,-1.59997 31.50253,0.056 40.81984,0.0609 0.75006,-46.14575 -10.28655,-72.43925 45.29097,-72.43195 l 23.35658,0.039 c 0.039,-14.46789 -0.51627,-30.63558 0,-44.88185 2.24775,-4.2471 3.09765,-5.0483 7.27169,-7.40807 z"
       id="path35"
       style="stroke-width:2.43526" />
    <path
       fill="#606c38"
       d="m 893.94915,342.58765 68.62808,-0.005 c 11.46277,-0.002 26.63688,-0.56255 37.66377,0.005 3.4921,26.58086 -0.01,77.4291 0.1315,106.01175 0.024,5.00933 -0.55283,7.08418 -5.62548,8.22875 -12.4247,0.57472 -100.12573,0.98384 -106.36731,-1.26877 -3.64802,-9.6899 -1.15918,-88.18565 -1.35644,-104.89397 -0.0633,-5.29183 2.09676,-7.02573 6.92588,-8.07776 z"
       id="path36"
       style="stroke-width:2.43526" />
    <path
       fill="#283618"
       d="m 969.86353,374.2509 c 38.92517,2.11381 -20.46837,51.384 -28.20032,58.3805 -7.91946,7.16941 -19.2556,-8.07776 -24.36721,-12.93854 -5.49882,-4.32989 -17.11745,-13.85419 -11.96687,-21.30853 10.99276,-15.91199 23.20316,1.74609 30.94242,8.38948 9.12492,-10.25976 21.40106,-27.22622 33.59198,-32.52291 z"
       id="path37"
       style="stroke-width:2.43526" />
    <path
       fill="#283618"
       d="m 891.30203,69.987029 70.89286,-0.04627 c 57.64991,-0.05601 61.63161,1.926291 61.61211,56.347051 l 0.024,48.71252 c 0.066,45.55398 1.4563,57.82769 -47.21479,57.29437 l -32.25016,-0.0682 c -16.29189,-0.0122 -32.84923,-0.23378 -49.0778,0.44079 -29.64443,1.2298 -31.42947,-21.61781 -31.45383,-45.52963 l 0.01,-22.88902 c -11.99123,-0.056 -51.85157,6.11251 -51.99282,-10.7882 -0.12906,-15.21307 16.91289,-12.95071 27.23839,-12.83382 l 24.75443,0.11446 C 862.6073,113.38092 856.6677,75.059666 891.30198,69.987019 Z"
       id="path38"
       style="stroke-width:2.43526" />
    <path
       fill="#bc6c25"
       d="m 887.13286,104.4971 c -0.056,-4.880257 -0.50166,-11.194888 6.20748,-11.309345 32.557,-0.557675 65.20897,-0.348242 97.77327,-0.06088 8.22631,0.07062 8.98369,4.273882 9.12739,11.370225 l -0.012,93.90121 c -0.1096,14.26089 -6.19775,11.45547 -18.49581,11.42137 -12.53672,-0.0365 -88.23436,1.88977 -93.84763,-1.2639 -1.88002,-4.24953 -0.75493,-91.31739 -0.7525,-104.05868 z"
       id="path39"
       style="stroke-width:2.43526" />
    <path
       fill="#dda15e"
       d="m 887.13286,104.4971 c -0.056,-4.880257 -0.50166,-11.194888 6.20748,-11.309345 32.557,-0.557675 65.20897,-0.348242 97.77327,-0.06088 8.22631,0.07062 8.98369,4.273882 9.12739,11.370225 z"
       id="path40"
       style="stroke-width:2.43526" />
    <path
       fill="#283618"
       d="m 969.86353,127.12067 c 9.28321,-0.9327 10.96598,2.96372 14.22435,10.74437 -3.58713,9.17363 -31.59263,35.43061 -40.97082,43.58386 -10.74437,9.33922 -16.53542,-0.38477 -23.53679,-7.95843 -4.66839,-5.11648 -14.80395,-12.61465 -14.40456,-19.93504 0.98871,-18.15244 20.17856,-9.06404 28.68493,3.40936 10.39612,-8.4674 24.62292,-25.43629 36.00289,-29.84412 z"
       id="path41"
       style="stroke-width:2.43526" />
  </g>
</svg>
